<svg width="1634" height="1790" viewBox="0 0 1634 1790" fill="none" xmlns="http://www.w3.org/2000/svg">
<path fill-rule="evenodd" clip-rule="evenodd" d="M1633.97 855.224C1630.36 1005.55 1278.08 1166.64 809.399 1166.64C340.609 1166.64 3.32791 1005.47 0.0285586 855.12C0.00951958 858.39 0 861.667 0 864.95C0 1420.45 272.5 1790 817 1790C1361.5 1790 1634 1420.45 1634 864.95C1634 861.702 1633.99 858.46 1633.97 855.224Z" fill="url(#paint0_linear_154_1761)"/>
<path fill-rule="evenodd" clip-rule="evenodd" d="M1633.97 855.224C1630.36 1005.55 1278.08 1166.64 809.399 1166.64C340.609 1166.64 3.32791 1005.47 0.0285586 855.12C0.00951958 858.39 0 861.667 0 864.95C0 1420.45 272.5 1790 817 1790C1361.5 1790 1634 1420.45 1634 864.95C1634 861.702 1633.99 858.46 1633.97 855.224Z" fill="url(#paint1_radial_154_1761)" fill-opacity="0.2"/>
<path fill-rule="evenodd" clip-rule="evenodd" d="M1633.97 855.224C1630.36 1005.55 1278.08 1166.64 809.399 1166.64C340.609 1166.64 3.32791 1005.47 0.0285586 855.12C0.00951958 858.39 0 861.667 0 864.95C0 1420.45 272.5 1790 817 1790C1361.5 1790 1634 1420.45 1634 864.95C1634 861.702 1633.99 858.46 1633.97 855.224Z" fill="url(#paint2_linear_154_1761)" fill-opacity="0.2"/>
<path d="M1633.5 884.192C1633.5 921.354 1611.52 959.322 1571.07 995.4C1530.63 1031.47 1471.78 1065.6 1398.18 1095.06C1250.98 1154 1044.9 1194.27 809.397 1194.27C573.897 1194.27 371.614 1154 228.225 1095.07C156.528 1065.6 99.577 1031.48 60.5587 995.406C21.535 959.332 0.5 921.362 0.5 884.192C0.5 809.666 41.8309 717.635 163.605 644.212C285.395 570.779 487.641 515.97 809.397 515.97C1131.15 515.97 1337.2 570.779 1462.8 644.215C1588.38 717.647 1633.5 809.681 1633.5 884.192Z" fill="url(#paint3_radial_154_1761)" stroke="white"/>
<path d="M1634 923.983C1634 1074.97 1280.5 1237.73 809.399 1237.73C338.297 1237.73 0.00425965 1074.97 0.00425965 923.983C0.00425965 773 -8.99573 0 812.502 0C1634 0 1634 773 1634 923.983Z" fill="url(#paint4_radial_154_1761)"/>
<path d="M1634 923.983C1634 1074.97 1280.5 1237.73 809.399 1237.73C338.297 1237.73 0.00425965 1074.97 0.00425965 923.983C0.00425965 773 -8.99573 0 812.502 0C1634 0 1634 773 1634 923.983Z" fill="url(#paint5_radial_154_1761)" fill-opacity="0.2"/>
<defs>
<linearGradient id="paint0_linear_154_1761" x1="1288.5" y1="1503.95" x2="1510.32" y2="1681.49" gradientUnits="userSpaceOnUse">
<stop stop-color="#3E50E1"/>
<stop offset="1" stop-color="white"/>
</linearGradient>
<radialGradient id="paint1_radial_154_1761" cx="0" cy="0" r="1" gradientUnits="userSpaceOnUse" gradientTransform="translate(693 1322.64) rotate(147.784) scale(460.968 430.294)">
<stop stop-color="white"/>
<stop offset="1" stop-color="#3E50E1"/>
</radialGradient>
<linearGradient id="paint2_linear_154_1761" x1="705" y1="1411.55" x2="34.6936" y2="1140.35" gradientUnits="userSpaceOnUse">
<stop stop-color="#3E50E1"/>
<stop offset="0.665" stop-color="#222C7B"/>
</linearGradient>
<radialGradient id="paint3_radial_154_1761" cx="0" cy="0" r="1" gradientUnits="userSpaceOnUse" gradientTransform="translate(817 540.444) rotate(86.1392) scale(490.109 1178.9)">
<stop stop-color="#4F62FD"/>
<stop offset="1" stop-color="#222C7B"/>
</radialGradient>
<radialGradient id="paint4_radial_154_1761" cx="0" cy="0" r="1" gradientUnits="userSpaceOnUse" gradientTransform="translate(817 902.572) rotate(-55.6222) scale(913.844 889.493)">
<stop offset="0.905" stop-color="white" stop-opacity="0"/>
<stop offset="1" stop-color="white"/>
</radialGradient>
<radialGradient id="paint5_radial_154_1761" cx="0" cy="0" r="1" gradientUnits="userSpaceOnUse" gradientTransform="translate(817 902.572) rotate(-55.6222) scale(913.844 889.493)">
<stop stop-color="white"/>
<stop offset="0.935201" stop-color="white"/>
</radialGradient>
</defs>
</svg>
