<svg width="1634" height="2461" viewBox="0 0 1634 2461" fill="none" xmlns="http://www.w3.org/2000/svg">
<path fill-rule="evenodd" clip-rule="evenodd" d="M1633.06 1491.1C1629.45 1641.58 1277.37 1802.84 808.947 1802.84C340.418 1802.84 3.32608 1641.51 0.0285431 1491C0.0095144 1494.27 0 1497.55 0 1500.84C0 2056.91 272.348 2426.84 816.544 2426.84C1360.74 2426.84 1633.09 2056.91 1633.09 1500.84C1633.09 1497.59 1633.08 1494.34 1633.06 1491.1Z" fill="url(#paint0_linear_630_119)"/>
<path fill-rule="evenodd" clip-rule="evenodd" d="M1633.06 1491.1C1629.45 1641.58 1277.37 1802.84 808.947 1802.84C340.418 1802.84 3.32608 1641.51 0.0285431 1491C0.0095144 1494.27 0 1497.55 0 1500.84C0 2056.91 272.348 2426.84 816.544 2426.84C1360.74 2426.84 1633.09 2056.91 1633.09 1500.84C1633.09 1497.59 1633.08 1494.34 1633.06 1491.1Z" fill="url(#paint1_radial_630_119)" fill-opacity="0.2"/>
<path fill-rule="evenodd" clip-rule="evenodd" d="M1633.06 1491.1C1629.45 1641.58 1277.37 1802.84 808.947 1802.84C340.418 1802.84 3.32608 1641.51 0.0285431 1491C0.0095144 1494.27 0 1497.55 0 1500.84C0 2056.91 272.348 2426.84 816.544 2426.84C1360.74 2426.84 1633.09 2056.91 1633.09 1500.84C1633.09 1497.59 1633.08 1494.34 1633.06 1491.1Z" fill="url(#paint2_linear_630_119)" fill-opacity="0.2"/>
<path d="M1632.59 1520.1C1632.59 1557.3 1610.62 1595.31 1570.19 1631.42C1529.77 1667.53 1470.95 1701.69 1397.4 1731.19C1250.28 1790.19 1044.31 1830.5 808.945 1830.5C573.576 1830.5 371.407 1790.19 228.098 1731.19C156.441 1701.7 99.5218 1667.54 60.5254 1631.43C21.5235 1595.32 0.5 1557.31 0.5 1520.1C0.5 1445.5 41.8082 1353.37 163.514 1279.87C285.236 1206.37 487.369 1151.5 808.945 1151.5C1130.52 1151.5 1336.46 1206.37 1461.98 1279.88C1587.5 1353.38 1632.59 1445.51 1632.59 1520.1Z" fill="url(#paint3_radial_630_119)" stroke="white"/>
<path fill-rule="evenodd" clip-rule="evenodd" d="M812.961 1198C1283.8 1198 1634 1084.14 1634 933C1634 922.844 1634 910.125 1633.75 895.234C1622.94 1019.99 1261.61 1150 817.456 1150C371.808 1150 9.54344 1019.11 1.06454 893.975C0.90233 907.102 0.909121 918.576 0.914778 928.136C0.915773 929.817 0.916733 931.439 0.916733 933C0.916733 1084.14 342.122 1198 812.961 1198ZM1.24479 882.539C5.45453 664.105 62.1748 63 812.961 63C1560.2 63 1627.37 658.437 1633.4 879.417C1618.84 756.16 1338.11 632 841.443 632C340.583 632 13.0856 758.266 1.24479 882.539Z" fill="url(#paint4_radial_630_119)"/>
<path fill-rule="evenodd" clip-rule="evenodd" d="M812.961 1198C1283.8 1198 1634 1084.14 1634 933C1634 922.844 1634 910.125 1633.75 895.234C1622.94 1019.99 1261.61 1150 817.456 1150C371.808 1150 9.54344 1019.11 1.06454 893.975C0.90233 907.102 0.909121 918.576 0.914778 928.136C0.915773 929.817 0.916733 931.439 0.916733 933C0.916733 1084.14 342.122 1198 812.961 1198ZM1.24479 882.539C5.45453 664.105 62.1748 63 812.961 63C1560.2 63 1627.37 658.437 1633.4 879.417C1618.84 756.16 1338.11 632 841.443 632C340.583 632 13.0856 758.266 1.24479 882.539Z" fill="url(#paint5_linear_630_119)" fill-opacity="0.3"/>
<path fill-rule="evenodd" clip-rule="evenodd" d="M812.961 1198C1283.8 1198 1634 1084.14 1634 933C1634 922.844 1634 910.125 1633.75 895.234C1622.94 1019.99 1261.61 1150 817.456 1150C371.808 1150 9.54344 1019.11 1.06454 893.975C0.90233 907.102 0.909121 918.576 0.914778 928.136C0.915773 929.817 0.916733 931.439 0.916733 933C0.916733 1084.14 342.122 1198 812.961 1198ZM1.24479 882.539C5.45453 664.105 62.1748 63 812.961 63C1560.2 63 1627.37 658.437 1633.4 879.417C1618.84 756.16 1338.11 632 841.443 632C340.583 632 13.0856 758.266 1.24479 882.539Z" fill="url(#paint6_radial_630_119)" fill-opacity="0.2"/>
<path d="M1632.59 891.471C1630.75 922.805 1607.12 954.749 1565.49 985.063C1523.88 1015.36 1464.38 1043.96 1390.98 1068.62C1244.21 1117.94 1041.98 1151.5 816.544 1151.5C591.106 1151.5 387.025 1118 239.318 1068.7C165.463 1044.05 105.726 1015.46 64.4641 985.156C23.1809 954.832 0.5 922.872 0.5 891.5C0.5 860.099 19.9453 828.137 57.4096 797.83C94.8658 767.529 150.265 738.943 221.995 714.295C365.451 665.003 574.13 631.5 834.947 631.5C1095.76 631.5 1297.09 665.121 1432.26 714.47C1499.85 739.145 1550.88 767.742 1584.53 798.012C1618.19 828.284 1634.43 860.179 1632.59 891.471Z" fill="url(#paint7_radial_630_119)" stroke="white"/>
<path d="M1634 1200C1634 1801.44 1268.22 2289 817 2289C365.783 2289 0 1801.44 0 1200C0 598.562 365.783 111 817 111C1268.22 111 1634 598.562 1634 1200Z" fill="url(#paint8_radial_630_119)"/>
<defs>
<linearGradient id="paint0_linear_630_119" x1="1287.78" y1="2140.5" x2="1509.75" y2="2317.88" gradientUnits="userSpaceOnUse">
<stop stop-color="#FFE173"/>
<stop offset="1" stop-color="white"/>
</linearGradient>
<radialGradient id="paint1_radial_630_119" cx="0" cy="0" r="1" gradientUnits="userSpaceOnUse" gradientTransform="translate(692.613 1959) rotate(147.743) scale(460.919 430.542)">
<stop stop-color="white"/>
<stop offset="1" stop-color="#3E50E1"/>
</radialGradient>
<linearGradient id="paint2_linear_630_119" x1="704.606" y1="2048" x2="34.3756" y2="1777.26" gradientUnits="userSpaceOnUse">
<stop stop-color="#FFE173"/>
<stop offset="0.665" stop-color="#FFCD16"/>
</linearGradient>
<radialGradient id="paint3_radial_630_119" cx="0" cy="0" r="1" gradientUnits="userSpaceOnUse" gradientTransform="translate(816.544 1176) rotate(86.1453) scale(490.61 1178.25)">
<stop stop-color="#FFE173"/>
<stop offset="1" stop-color="#C29B0F"/>
</radialGradient>
<radialGradient id="paint4_radial_630_119" cx="0" cy="0" r="1" gradientUnits="userSpaceOnUse" gradientTransform="translate(866.928 846.499) rotate(-6.5325) scale(1072.37 499.967)">
<stop offset="0.325" stop-color="white"/>
<stop offset="1" stop-color="#DEDEDE" stop-opacity="0"/>
</radialGradient>
<linearGradient id="paint5_linear_630_119" x1="1224.23" y1="547.499" x2="1451.68" y2="393.617" gradientUnits="userSpaceOnUse">
<stop stop-color="#D7D7D7" stop-opacity="0"/>
<stop offset="1" stop-color="white"/>
</linearGradient>
<radialGradient id="paint6_radial_630_119" cx="0" cy="0" r="1" gradientUnits="userSpaceOnUse" gradientTransform="translate(729.505 628.499) rotate(-115.639) scale(575.129 974.92)">
<stop offset="0.81" stop-color="#EDEDED" stop-opacity="0"/>
<stop offset="1" stop-color="white"/>
</radialGradient>
<radialGradient id="paint7_radial_630_119" cx="0" cy="0" r="1" gradientUnits="userSpaceOnUse" gradientTransform="translate(817.456 1141) rotate(-90) scale(518 1257.83)">
<stop offset="0.09" stop-color="white"/>
<stop offset="1" stop-color="#DDDDDD" stop-opacity="0"/>
</radialGradient>
<radialGradient id="paint8_radial_630_119" cx="0" cy="0" r="1" gradientUnits="userSpaceOnUse" gradientTransform="translate(817.356 1200) rotate(90) scale(921.864 692.37)">
<stop stop-color="white"/>
<stop offset="1" stop-color="white" stop-opacity="0"/>
</radialGradient>
</defs>
</svg>
